<svg version="1.1" id="Layer_1" xmlns="http://www.w3.org/2000/svg" xmlns:xlink="http://www.w3.org/1999/xlink" x="0px" y="0px"
	 width="100%" viewBox="0 0 336 304" enable-background="new 0 0 336 304" xml:space="preserve">
<path fill="#212529" opacity="1.000000" stroke="none" 
	d="
M64.123062,17.615969 
	C72.322983,20.083988 80.081261,22.609703 87.931725,24.805899 
	C93.935249,26.485409 97.520576,30.098129 99.453903,36.056152 
	C103.566284,48.729443 103.727142,48.676655 117.013924,48.676140 
	C171.513855,48.674019 226.013794,48.667480 280.513733,48.686970 
	C282.835968,48.687801 285.214417,48.652420 287.470734,49.108540 
	C298.208618,51.279240 302.636780,58.240868 299.594086,68.875053 
	C292.181915,94.780296 284.516327,120.613022 276.951508,146.474579 
	C275.410309,151.743423 273.937317,157.033661 272.304718,162.274078 
	C268.206635,175.428223 261.506317,180.360947 247.855240,180.364151 
	C211.355286,180.372681 174.855331,180.365097 138.355392,180.393951 
	C136.394150,180.395508 134.361755,179.970642 131.911591,181.216064 
	C133.920746,186.898727 137.598328,191.114624 142.778778,194.034973 
	C147.367630,196.621780 152.385300,197.628021 157.659332,197.623367 
	C186.825928,197.597672 215.992584,197.599655 245.159164,197.641357 
	C255.009674,197.655441 259.963470,202.995224 259.318909,212.703583 
	C258.911285,218.843262 255.076645,223.310715 248.964676,224.482758 
	C246.857300,224.886856 244.662903,224.969910 242.507935,224.972900 
	C214.674698,225.011520 186.837906,224.738342 159.009155,225.097580 
	C133.995300,225.420486 117.592293,213.261597 107.156082,191.394928 
	C100.327049,177.086304 97.700371,161.667786 94.739853,146.326355 
	C89.862915,121.054054 85.071182,95.765305 80.228928,70.486290 
	C79.167252,64.943825 77.844177,59.442291 77.030647,53.865143 
	C76.599442,50.909016 75.106644,49.536945 72.510521,48.668568 
	C67.302910,46.926674 62.076382,45.211647 56.975338,43.188786 
	C51.282097,40.931076 48.273521,35.563641 48.703751,29.164175 
	C49.102379,23.234770 52.730175,18.864433 58.384007,17.197214 
	C60.281841,16.637575 61.980392,16.811821 64.123062,17.615969 
M149.521133,138.165466 
	C148.796417,141.735672 150.033646,144.410568 153.298798,146.009048 
	C156.474182,147.563568 159.055054,146.232529 161.479584,144.146652 
	C163.497467,142.410645 165.528336,140.666718 167.703857,139.140732 
	C180.278152,130.320694 193.624161,128.460342 207.798218,134.964813 
	C212.521881,137.132507 216.739090,140.077560 220.582062,143.584473 
	C224.871964,147.499207 228.975739,147.801788 231.919922,144.522568 
	C234.873291,141.233047 234.196518,137.274323 229.745056,133.352036 
	C223.839493,128.148514 217.323975,123.882668 210.008484,120.849854 
	C186.247421,110.999107 160.666138,123.191093 149.521133,138.165466 
M222.418060,88.338608 
	C216.210022,89.112595 213.047318,91.780899 212.365768,96.819550 
	C211.736633,101.470634 213.959396,105.597397 218.068283,107.406784 
	C223.656036,109.867386 229.784164,107.146103 231.729446,101.340355 
	C233.766861,95.259666 230.443375,90.207428 222.418060,88.338608 
M159.029724,108.113976 
	C162.344360,108.487183 165.307678,107.720383 167.709946,105.315407 
	C170.920074,102.101669 171.535217,97.372002 169.318451,93.366402 
	C167.187393,89.515625 162.621826,87.541046 158.229340,88.570450 
	C154.068390,89.545578 150.690643,93.564041 150.407181,97.876396 
	C150.113144,102.349518 153.114334,106.176308 159.029724,108.113976 
z"/>
<path fill="#212529" opacity="1.000000" stroke="none" 
	d="
M152.176971,276.239868 
	C138.304352,268.879364 135.296997,252.607239 145.639816,242.818512 
	C152.702362,236.134323 164.263290,235.291031 171.799606,240.910309 
	C180.239700,247.203476 182.710571,257.952911 177.831955,267.154022 
	C173.056030,276.161469 163.208969,279.740875 152.176971,276.239868 
z"/>
<path fill="#212529" opacity="1.000000" stroke="none" 
	d="
M245.367950,238.112732 
	C255.435730,242.645996 259.916901,249.590134 259.320221,259.309631 
	C258.844086,267.065948 252.872971,274.368042 245.028641,276.786957 
	C237.313339,279.166046 228.726791,276.729370 223.688461,270.731110 
	C218.122742,264.105011 217.006699,255.243805 221.089996,247.865662 
	C225.288818,240.278854 231.862381,236.823029 240.534714,237.463531 
	C242.026230,237.573669 243.509689,237.792816 245.367950,238.112732 
z"/>
</svg>