<?xml version="1.0" encoding="UTF-8" standalone="no"?>
<!-- Created with Inkscape (http://www.inkscape.org/) -->

<svg
   width="200mm"
   height="150mm"
   viewBox="0 0 200 150"
   version="1.1"
   id="svg1"
   xml:space="preserve"
   sodipodi:docname="Shopyt.svg"
   inkscape:export-filename="Shopyt.png"
   inkscape:export-xdpi="96"
   inkscape:export-ydpi="96"
   inkscape:version="1.4 (86a8ad7, 2024-10-11)"
   xmlns:inkscape="http://www.inkscape.org/namespaces/inkscape"
   xmlns:sodipodi="http://sodipodi.sourceforge.net/DTD/sodipodi-0.dtd"
   xmlns="http://www.w3.org/2000/svg"
   xmlns:svg="http://www.w3.org/2000/svg"><sodipodi:namedview
     id="namedview1"
     pagecolor="#ffffff"
     bordercolor="#000000"
     borderopacity="0.25"
     inkscape:showpageshadow="2"
     inkscape:pageopacity="0.0"
     inkscape:pagecheckerboard="0"
     inkscape:deskcolor="#d1d1d1"
     inkscape:document-units="mm"
     inkscape:zoom="1.3634861"
     inkscape:cx="377.70828"
     inkscape:cy="283.46457"
     inkscape:window-width="1920"
     inkscape:window-height="991"
     inkscape:window-x="-9"
     inkscape:window-y="-9"
     inkscape:window-maximized="1"
     inkscape:current-layer="svg1" /><defs
     id="defs1" /><g
     id="layer3"
     style="display:inline;opacity:1"><g
       id="g33"
       transform="matrix(0.22670395,0,0,0.22063806,-128.20734,-104.1232)"
       style="display:inline;opacity:1"><path
         fill="#7f8cd9"
         opacity="1"
         stroke="none"
         d="m 1297.2323,1097.1628 c -81.1408,0.2499 -161.793,0.6133 -242.4455,0.7129 -100.32914,0.1238 -200.65855,0.065 -300.98783,0 -17.15333,-0.012 -34.38739,0.4555 -51.43085,-1.0429 -11.23316,-0.9874 -22.66693,-3.9082 -33.1601,-8.0953 -15.1712,-6.054 -19.51799,-19.7647 -23.73687,-34.9811 -16.1459,-92.11556 -41.9884,-167.78667 -46.54691,-261.36573 -0.79529,-14.08935 -0.54006,-44.10283 -0.66042,-58.20524 -0.0755,-8.8573 1.60986,-17.66028 7.31427,-24.95923 6.9635,-8.90985 17.05633,-11.01715 27.5238,-12.00202 2.97614,-0.28009 5.99536,-0.13043 8.99488,-0.13049 244.32354,-0.004 488.64713,-0.0172 732.97053,0.0686 6.4417,0.002 13.0541,0.35022 19.29,1.80793 14.3454,3.35327 22.5749,12.1184 23.5263,26.74176 0.9358,14.38458 1.3375,42.5329 0.9996,56.98005 -11.2209,95.66118 -33.3495,176.65641 -50.7446,271.41467 -3.2809,17.8983 -12.9009,29.8114 -29.7555,36.1156 -13.1034,4.901 -26.8522,6.1247 -41.1508,6.9446 M 687.47833,965.06012 c 15.23419,4.45129 30.71924,5.11755 46.31708,2.65875 11.36475,-1.7915 22.53168,-4.39905 32.34686,-10.893 18.28424,-12.0976 17.92285,-38.22803 -2.45178,-48.55219 -5.04559,-2.5567 -10.20563,-4.88977 -15.22418,-7.49676 -3.82904,-1.98908 -7.8902,-3.81031 -11.12287,-6.55902 -1.80737,-1.53699 -3.28295,-5.0636 -2.80743,-7.23328 0.46979,-2.14386 3.30597,-4.40424 5.61792,-5.32916 2.27423,-0.90992 5.28644,-0.64557 7.80884,-0.1117 4.04498,0.85596 8.026,2.16803 11.89654,3.6471 3.25592,1.2442 5.45337,0.11981 7.39826,-2.29151 7.04553,-8.73517 4.63403,-19.17425 -5.57813,-23.89642 -2.10363,-0.97278 -4.32415,-1.72528 -6.54266,-2.41174 -16.0813,-4.97553 -32.65259,-4.38813 -49.00848,-2.96253 -7.86841,0.68573 -15.8761,3.78815 -23.08234,7.3078 -22.02808,10.75873 -18.35712,38.69428 -2.16077,49.95618 4.36157,3.03284 9.13916,5.46124 13.58625,8.37964 3.18164,2.08789 6.5755,4.1449 9.01507,6.96045 1.44672,1.6698 2.26904,5.2373 1.45386,7.12195 -0.78748,1.82043 -3.91614,3.15228 -6.23816,3.63732 -2.31476,0.48365 -4.99939,-0.0138 -7.35535,-0.67468 -5.59515,-1.56952 -11.03448,-3.71484 -16.65887,-5.14874 -2.00788,-0.51196 -4.89838,-0.39203 -6.47211,0.72601 -5.95312,4.22931 -5.97711,20.26367 0.2041,24.13367 5.70478,3.57178 12.14099,5.97546 19.05835,9.03186 M 798.88611,851.12335 c -4.83515,0.22187 -9.5741,0.62213 -10.36621,6.88678 -0.24945,1.97327 -0.46717,3.96759 -0.47003,5.95252 -0.0443,30.49957 -0.0597,60.9992 -0.0593,91.49878 1.2e-4,7.00555 3.13123,10.25848 10.31866,10.38922 8.83039,0.16058 17.66749,0.21411 26.49738,0.0624 8.93317,-0.15344 11.8678,-3.26648 12.00452,-12.21728 0.16296,-10.66504 0.0935,-21.33832 0.50683,-31.99323 0.25293,-6.518 4.46576,-10.55346 9.84363,-10.32122 4.97052,0.21466 7.81928,4.07867 7.82562,10.78467 0.0112,11.83325 -0.0609,23.66662 -0.0449,35.49981 0.009,6.39331 1.88892,8.34686 8.32843,8.38269 9.99921,0.0557 19.9997,-0.003 29.99872,-0.10522 8.30158,-0.0849 10.3877,-2.0827 10.47681,-10.3664 0.11651,-10.83178 0.34381,-21.67981 -0.11347,-32.49395 -0.28509,-6.74402 -0.60565,-13.86023 -2.90338,-20.07209 -5.72998,-15.49011 -23.39227,-20.6311 -40.32489,-18.61944 -8.82672,1.0487 -16.24786,5.24878 -23.2677,11.58117 -0.41095,-7.07409 -0.89471,-13.31152 -1.09912,-19.5581 -0.17419,-5.32508 0.17011,-10.66962 -0.0709,-15.98944 -0.31354,-6.92096 -2.75488,-9.20062 -9.65412,-9.27576 -8.83227,-0.0962 -17.66632,-0.0266 -27.42663,-0.0259 M 1036.9042,920.5 c 0.027,20.65167 0,41.30353 0.1075,61.95483 0.04,8.05396 2.502,10.42859 10.4993,10.4759 9.3263,0.0551 18.6537,0.0712 27.9795,-0.0151 6.6935,-0.0619 9.0547,-2.2782 9.4549,-8.89935 0.4416,-7.30372 0.6758,-14.61982 1.0323,-21.92902 0.067,-1.37549 0.2841,-2.74371 0.4858,-4.61334 1.3546,0.76648 2.1962,1.01867 2.7175,1.57245 4.9214,5.22711 11.0603,7.8385 18.0972,8.51794 15.2357,1.47119 34.7767,-3.99219 39.9974,-24.53033 2.9853,-11.74433 3.0973,-23.79413 -0.1598,-35.50806 -4.2645,-15.33814 -15.9246,-23.66254 -31.8147,-23.57459 -11.2946,0.0625 -21.4893,3.54969 -30.6114,10.18451 -3.2877,-6.26495 -5.3021,-7.92169 -10.6455,-8.01037 -9.3244,-0.15491 -18.6548,-0.21887 -27.978,-0.0529 -6.1322,0.10925 -9.0276,3.3136 -9.0744,9.44489 -0.061,7.99395 -0.059,15.98834 -0.088,24.98254 m -61.47567,48.51483 c 5.93078,-0.69733 11.93164,-1.03033 17.78027,-2.15497 25.5585,-4.9143 38.843,-24.50763 33.5093,-49.87286 -3.568,-16.96851 -15.5817,-26.35126 -31.5566,-29.59027 -11.33264,-2.29791 -23.24634,-1.81793 -34.91071,-2.36548 -10.20117,-0.47894 -19.79992,2.08423 -28.78991,6.78052 -16.21143,8.46844 -21.85169,22.5628 -20.33527,39.96069 1.39166,15.96643 9.96405,26.70227 24.98822,32.37134 12.40833,4.68207 25.30957,5.18939 39.3147,4.87103 m 284.64327,-68.41327 c 1.3114,-2.87536 2.7972,-5.68628 3.8904,-8.64233 1.3656,-3.69251 -0.091,-5.78931 -4.0467,-5.90576 -4.6605,-0.13721 -9.341,0.17968 -13.9886,-0.10132 -3.937,-0.23798 -6.0949,1.40314 -7.6966,4.87439 -4.2518,9.21527 -8.6859,18.34967 -13.246,27.41632 -0.7955,1.58154 -2.3875,3.33728 -3.9402,3.73767 -0.8677,0.22369 -2.7856,-1.96973 -3.5889,-3.42737 -4.579,-8.30749 -8.9835,-16.71161 -13.4095,-25.10278 -2.6587,-5.04022 -6.6686,-7.54041 -12.4852,-7.46857 -11.1599,0.13776 -22.3228,-0.01 -33.4841,0.0575 -6.0377,0.0363 -8.4697,3.27337 -6.8508,9.08441 0.4844,1.73877 1.3469,3.40204 2.223,4.99725 11.0541,20.12665 22.1349,40.23865 33.2266,60.34461 3.275,5.93658 2.4297,8.52038 -4.2211,9.88208 -5.1685,1.05816 -10.5502,1.05297 -15.8265,1.61938 -1.5973,0.17151 -3.5347,0.2002 -4.6736,1.10413 -5.4799,4.34948 -3.3595,18.01568 3.3896,19.41357 14.5305,3.00977 29.0158,3.37628 42.6955,-4.23505 10.0109,-5.57006 15.8343,-14.69897 20.7639,-24.32415 10.6166,-20.72901 20.6853,-41.73853 31.2688,-63.32398 m 33.3613,-29.66931 c -8.1913,5.85364 -14.8326,13.66754 -24.6892,17.51099 -4.7496,1.85223 -3.5735,7.53283 -2.9186,12.06207 0.5548,3.8374 2.6765,5.55035 6.3842,5.55188 3.7654,0.002 4.7281,2.12988 4.6908,5.51404 -0.087,7.82678 -0.136,15.66192 0.1247,23.48279 0.4551,13.65075 7.4232,22.84314 20.3542,27.09259 18.484,6.0744 37.0246,4.28466 55.4392,-0.20081 2.2396,-0.54565 5.1483,-3.38519 5.5152,-5.54138 0.7904,-4.64386 0.4859,-9.57648 -0.063,-14.31073 -0.385,-3.32221 -2.6907,-4.66364 -6.2579,-3.2912 -3.0896,1.18878 -6.3103,2.16119 -9.558,2.79126 -9.0005,1.74609 -16.2995,-4.21991 -16.4783,-13.37201 -0.1074,-5.49463 0.109,-10.99713 -0.064,-16.4884 -0.1269,-4.0304 1.435,-5.80652 5.5677,-5.65509 4.9896,0.1828 9.9922,-0.0175 14.9887,0.0143 3.8531,0.0245 5.872,-2.05151 6.3803,-5.64002 0.2781,-1.96301 0.2217,-3.99218 0.1375,-5.984 -0.2338,-5.52167 -2.1229,-7.35309 -7.7424,-7.45234 -4.496,-0.0795 -9.0081,-0.23529 -13.4878,0.0447 -4.2461,0.26532 -6.198,-1.08337 -5.8649,-5.60394 0.293,-3.97571 0.4236,-8.04083 -0.1089,-11.96674 -0.2611,-1.92425 -2.1843,-5.17352 -3.3661,-5.1784 -9.8722,-0.0402 -20.558,-3.07099 -28.984,6.62048 M 838.1083,747.54192 c -5.08362,-4.3565 -11.03454,-5.8822 -17.62286,-5.59436 -10.74103,0.46936 -18.12451,5.94489 -22.76673,15.315 -5.00433,10.10083 -2.93414,19.48664 4.01557,27.76148 6.95361,8.2793 16.17053,10.99768 26.57153,8.3385 9.79913,-2.50537 16.2287,-8.92255 18.79889,-18.79565 2.74786,-10.55585 -0.53217,-19.323 -8.9964,-27.02497 m 348.5483,35.37079 c 0.9785,1.13074 1.9008,2.31635 2.9443,3.38361 9.3665,9.58124 23.6082,10.71032 34.52,2.7619 10.222,-7.44568 13.4726,-22.06683 7.4449,-33.48572 -5.9472,-11.26672 -20.0085,-16.7041 -32.1196,-12.33472 -14.6265,5.2768 -23.0306,23.44349 -12.7896,39.67493 z"
         id="path2"
         style="display:inline" /><path
         fill="#7d8ad7"
         opacity="1"
         stroke="none"
         d="m 1104.3396,933.99567 c -2.1897,6.30133 -5.4196,8.71716 -10.1019,7.85254 -4.8667,-0.89863 -8.1322,-4.94623 -8.2312,-10.32642 -0.064,-3.48352 -0.092,-6.9715 0.01,-10.45337 0.1378,-4.78308 3.8015,-8.86377 8.4677,-9.61127 4.3628,-0.69897 8.4366,1.75012 9.3611,6.91108 0.8877,4.95599 0.4708,10.14575 0.4963,15.62744 z"
         id="path12"
         style="display:inline" /><path
         fill="#7d8ad7"
         opacity="1"
         stroke="none"
         d="m 977.20947,936.93182 c -1.46557,4.52466 -3.71356,7.50208 -8.66137,7.07251 -4.94788,-0.42968 -7.05103,-4.01922 -7.38562,-8.07397 -0.52533,-6.36646 -0.4776,-12.84387 0.062,-19.21204 0.35949,-4.24261 3.39343,-6.64032 7.92468,-6.7146 4.5072,-0.0738 7.71277,2.02057 8.02905,6.42621 0.47919,6.67426 0.1341,13.40772 0.0313,20.50189 z"
         id="path13"
         style="display:inline" /><path
         fill="#808dd9"
         opacity="1"
         stroke="none"
         d="m 846.52348,581.66065 c 24.98327,-24.51735 55.79852,-42.5597 93.25256,-53.66409 24.46973,-7.25477 49.73773,-10.71892 76.07946,-10.83439 32.9471,-0.14437 64.0964,5.02789 93.647,16.04351 42.1179,15.70032 74.3729,39.51081 96.6346,71.24743 16.1167,22.97624 24.8613,47.54475 25.2913,73.76924 0.021,1.27225 0,2.54489 0,4.16872 -15.324,0 -30.3473,0 -45.3398,0 -0.919,-6.86468 -1.3234,-13.66914 -2.805,-20.33078 -8.9002,-40.01804 -36.2754,-70.46065 -81.0966,-91.41835 -30.5847,-14.30106 -64.2167,-19.79042 -99.6383,-17.6333 -77.16269,4.69911 -140.20419,50.22793 -152.49301,109.68561 -1.14947,5.56165 -1.22492,11.25187 -2.11304,16.85271 -0.17932,1.13085 -1.75964,3.03623 -2.72912,3.04947 -14.45508,0.19734 -28.91614,0.13636 -43.67438,0.13636 1.08282,-37.59985 15.46667,-71.19651 44.98163,-101.07214 z"
         id="path16"
         style="display:inline;stroke-width:0.878698" /></g></g></svg>
